# Blender v2.92.0 OBJ File: 'star.blend'
# www.blender.org
mtllib star.mtl
o Circle_Circle.001
v 6.690429 94.184128 -1.084701
v 6.481893 94.185623 1.908042
v 4.349088 91.686760 0.257044
v 6.696223 96.505196 0.418176
v 5.422446 95.438629 0.329954
v 4.953585 93.070648 1.475740
v 5.116857 93.069473 -0.867420
v 4.801384 28.630892 -18.777088
v 2.417649 24.662334 -17.832407
v 4.886543 26.868305 -21.203207
v 3.206615 26.780647 -18.758337
v 3.524181 26.794207 -19.342375
v 3.233489 26.224421 -19.523962
v 4.804084 27.342791 -19.695999
v 9.771410 30.415438 -88.859489
v 7.412145 28.289074 -87.007080
v 9.700665 27.565020 -89.792290
v 8.173170 29.811356 -87.939438
v 8.612266 29.417252 -90.545555
v 8.117780 27.579628 -88.669762
v 9.923617 29.706142 -91.527779
v 3.988037 -9.334076 -33.050430
v 1.571310 -9.438132 -28.991774
v 3.788411 -12.183566 -32.133610
v 2.341050 -9.733525 -31.291187
v 2.603222 -10.312824 -31.485638
v 2.278053 -10.632758 -31.001865
v 3.862304 -10.603137 -32.113792
v 2.478370 -75.526993 -56.622601
v 0.231868 -74.203156 -54.030369
v 2.226112 -77.287148 -54.206360
v 0.953312 -74.686981 -55.765663
v 1.134838 -77.316566 -56.204124
v 0.755808 -76.065079 -53.873871
v 2.358110 -78.284927 -56.781837
v 0.584559 -34.538795 -1.445574
v -1.446526 -30.495413 -0.085491
v 0.376024 -34.537292 1.547169
v -0.904167 -32.837036 -0.521035
v -0.680689 -33.226673 -0.030758
v -0.969975 -32.836567 0.423400
v 0.504152 -34.035019 0.052208
v -5.318493 -77.232819 54.068417
v -7.268842 -74.149139 53.614471
v -5.403651 -75.470230 56.494537
v -6.728391 -76.011185 53.534008
v -6.676286 -77.260307 55.895557
v -6.795066 -74.631172 55.433525
v -5.545025 -78.228020 56.638298
v -0.705559 -12.151211 32.360630
v -2.465312 -9.409073 28.938936
v -0.634814 -9.300793 33.293427
v -2.044255 -10.601637 31.028812
v -1.789299 -10.281199 31.552685
v -2.021930 -9.702111 31.323181
v -0.629521 -10.570798 32.349670
v -2.844177 27.655359 90.242340
v -4.724259 28.376469 87.165932
v -2.644552 30.504850 89.325523
v -4.256085 27.668736 88.911133
v -4.026397 29.508266 90.835526
v -4.099789 29.899731 88.193306
v -2.863922 29.798223 91.989845
v 1.900584 26.889816 21.649153
v -0.077119 24.680307 17.970728
v 2.152841 28.649967 19.232910
v 0.496349 26.244133 19.757521
v 0.809454 26.813757 19.617435
v 0.575955 26.799595 18.995020
v 2.027985 27.362787 20.144600
v 18.457146 93.623680 -0.264512
v 20.343409 90.924957 1.371914
v 18.248611 93.625175 2.728230
v 19.872940 92.366646 0.161139
v 19.630020 94.761925 1.320280
v 19.709669 92.367821 2.504299
v 18.462942 95.944748 1.238364
v 16.568102 28.070448 -17.956900
v 16.653261 26.307861 -20.383018
v 18.411968 23.900532 -16.717537
v 16.570803 26.782347 -18.875811
v 17.731756 26.117506 -18.352049
v 17.989574 25.521593 -18.495407
v 17.962700 26.077820 -17.729778
v 21.538128 29.854994 -88.039299
v 21.467384 27.004576 -88.972099
v 23.406464 27.527267 -85.892212
v 21.690334 29.145699 -90.707588
v 22.819841 28.740551 -89.555229
v 22.873865 26.876797 -87.641205
v 22.929255 29.108524 -86.910873
v 15.754755 -9.894520 -32.230240
v 15.555129 -12.744011 -31.313419
v 17.565630 -10.199936 -27.876904
v 15.629023 -11.163583 -31.293602
v 16.810797 -10.989524 -30.495312
v 17.034138 -11.335578 -29.973307
v 17.097134 -10.436352 -30.262629
v 14.245089 -76.087440 -55.802418
v 13.992830 -77.847588 -53.386169
v 16.226189 -74.964958 -52.915501
v 14.124827 -78.845367 -55.961643
v 15.342413 -77.993271 -55.213799
v 15.511891 -76.767929 -52.845314
v 15.709394 -75.389809 -54.737087
v 12.351277 -35.099239 -0.625386
v 12.142742 -35.097736 2.367357
v 14.547794 -31.257215 1.029376
v 12.270870 -34.595463 0.872395
v 13.526886 -33.903378 0.959566
v 13.786110 -33.539391 1.451953
v 13.851917 -33.539867 0.507523
v 6.448226 -77.793266 54.888607
v 6.363067 -76.030678 57.314728
v 8.725478 -74.910942 54.729340
v 6.221694 -78.788467 57.458488
v 7.531289 -77.937012 56.885883
v 7.961019 -75.334007 56.462074
v 8.027693 -76.714012 54.562565
v 11.061159 -12.711656 33.180820
v 11.131905 -9.861238 34.113617
v 13.529008 -10.170877 30.053806
v 11.137197 -11.131244 33.169861
v 12.418276 -10.957900 32.543011
v 12.734155 -10.404941 32.351730
v 12.711828 -11.304463 32.057369
v 8.922541 27.094915 91.062531
v 9.122167 29.944407 90.145714
v 11.270061 27.614666 88.280800
v 8.902796 29.237776 92.810036
v 10.181178 28.831566 91.825851
v 10.656296 29.196903 89.221878
v 10.500000 26.965908 89.939697
v 13.667302 26.329372 22.469341
v 13.919559 28.089523 20.053099
v 15.917201 23.918505 19.085598
v 13.794703 26.802343 20.964788
v 15.017030 26.137056 20.607761
v 15.332039 26.096760 20.023579
v 15.252434 25.541306 20.786079
vt 0.000000 0.000000
vt 0.000000 0.000000
vt 0.000000 0.000000
vt 0.000000 0.000000
vt 0.000000 0.000000
vt 0.000000 0.000000
vt 0.000000 0.000000
vt 0.000000 0.000000
vt 0.000000 0.000000
vt 0.000000 0.000000
vt 0.000000 0.000000
vt 0.000000 0.000000
vt 0.000000 0.000000
vt 0.000000 0.000000
vt 0.000000 0.000000
vt 0.000000 0.000000
vt 0.000000 0.000000
vt 0.000000 0.000000
vt 0.000000 0.000000
vt 0.000000 0.000000
vt 0.000000 0.000000
vt 0.000000 0.000000
vt 0.000000 0.000000
vt 0.000000 0.000000
vt 0.000000 0.000000
vt 0.000000 0.000000
vt 0.000000 0.000000
vt 0.000000 0.000000
vt 0.000000 0.000000
vt 0.000000 0.000000
vt 0.000000 0.000000
vt 0.000000 0.000000
vt 0.000000 0.000000
vt 0.000000 0.000000
vt 0.000000 0.000000
vt 0.000000 0.000000
vt 0.000000 0.000000
vt 0.000000 0.000000
vt 0.000000 0.000000
vt 0.000000 0.000000
vt 0.000000 0.000000
vt 0.000000 0.000000
vt 0.000000 0.000000
vt 0.000000 0.000000
vt 0.000000 0.000000
vt 0.000000 0.000000
vt 0.000000 0.000000
vt 0.000000 0.000000
vt 0.000000 0.000000
vt 0.000000 0.000000
vt 0.000000 0.000000
vt 0.000000 0.000000
vt 0.000000 0.000000
vt 0.000000 0.000000
vt 0.000000 0.000000
vt 0.000000 0.000000
vt 0.000000 0.000000
vt 0.000000 0.000000
vt 0.000000 0.000000
vt 0.000000 0.000000
vt 0.000000 0.000000
vt 0.000000 0.000000
vt 0.000000 0.000000
vt 0.000000 0.000000
vt 0.000000 0.000000
vt 0.000000 0.000000
vt 0.000000 0.000000
vt 0.000000 0.000000
vt 0.000000 0.000000
vt 0.000000 0.000000
vt 0.000000 0.000000
vt 0.000000 0.000000
vt 0.000000 0.000000
vt 0.000000 0.000000
vt 0.000000 0.000000
vt 0.000000 0.000000
vt 0.000000 0.000000
vt 0.000000 0.000000
vt 0.000000 0.000000
vt 0.000000 0.000000
vt 0.000000 0.000000
vt 0.000000 0.000000
vt 0.000000 0.000000
vt 0.000000 0.000000
vt 0.000000 0.000000
vt 0.000000 0.000000
vt 0.000000 0.000000
vt 0.000000 0.000000
vt 0.000000 0.000000
vt 0.000000 0.000000
vt 0.000000 0.000000
vt 0.000000 0.000000
vt 0.000000 0.000000
vt 0.000000 0.000000
vt 0.000000 0.000000
vt 0.000000 0.000000
vt 0.000000 0.000000
vt 0.000000 0.000000
vt 0.000000 0.000000
vt 0.000000 0.000000
vt 0.000000 0.000000
vt 0.000000 0.000000
vt 0.000000 0.000000
vt 0.000000 0.000000
vt 0.000000 0.000000
vt 0.000000 0.000000
vt 0.000000 0.000000
vt 0.000000 0.000000
vt 0.000000 0.000000
vt 0.000000 0.000000
vt 0.000000 0.000000
vt 0.000000 0.000000
vt 0.000000 0.000000
vt 0.000000 0.000000
vt 0.000000 0.000000
vt 0.000000 0.000000
vt 0.000000 0.000000
vt 0.000000 0.000000
vt 0.000000 0.000000
vt 0.000000 0.000000
vt 0.000000 0.000000
vt 0.000000 0.000000
vt 0.000000 0.000000
vt 0.000000 0.000000
vt 0.000000 0.000000
vt 0.000000 0.000000
vt 0.000000 0.000000
vt 0.000000 0.000000
vt 0.000000 0.000000
vt 0.000000 0.000000
vt 0.000000 0.000000
vt 0.000000 0.000000
vt 0.000000 0.000000
vt 0.000000 0.000000
vt 0.000000 0.000000
vt 0.000000 0.000000
vt 0.000000 0.000000
vt 0.000000 0.000000
vt 0.000000 0.000000
vt 0.000000 0.000000
vn 0.2852 -0.4000 -0.8710
vn 0.2673 -0.4180 -0.8682
vn -0.1829 -0.3966 -0.8996
vn -0.1985 -0.3770 -0.9047
vn 0.1895 -0.9758 0.1087
vn 0.1713 -0.9770 0.1267
vn -0.2788 -0.9556 0.0953
vn -0.2942 -0.9528 0.0750
vn 0.3210 0.7126 -0.6237
vn 0.3049 0.7038 -0.6416
vn -0.1452 0.7253 -0.6729
vn -0.1627 0.7357 -0.6575
vn 0.2985 0.8378 -0.4572
vn 0.3156 0.8241 -0.4704
vn -0.1681 0.8471 -0.5041
vn -0.1517 0.8592 -0.4886
vn 0.9716 -0.1737 0.1603
vn 0.9828 -0.1716 0.0685
vn 0.9845 -0.1738 -0.0239
vn 0.9951 -0.0856 -0.0494
vn 0.9968 0.0015 -0.0803
vn 0.9985 0.0536 -0.0039
vn 0.9915 0.1100 0.0690
vn 0.9883 0.0537 0.1423
vn 0.9760 0.0017 0.2177
vn 0.9786 -0.0855 0.1871
vn 0.1872 -0.9771 -0.1007
vn 0.2027 -0.9759 -0.0804
vn -0.2810 -0.9529 -0.1142
vn -0.2630 -0.9557 -0.1321
vn 0.2474 0.8246 0.5087
vn 0.2322 0.8382 0.4934
vn -0.2180 0.8597 0.4620
vn -0.2363 0.8476 0.4750
vn 0.2130 0.7045 0.6770
vn 0.2314 0.7133 0.6615
vn -0.2523 0.7363 0.6278
vn -0.2371 0.7259 0.6456
vn -0.9965 -0.0800 0.0231
vn -0.9987 0.0087 0.0492
vn -0.9922 0.0954 0.0806
vn -0.9890 0.1479 0.0045
vn -0.9766 0.2038 -0.0681
vn -0.9788 0.1478 -0.1417
vn -0.9714 0.0953 -0.2175
vn -0.9822 0.0085 -0.1873
vn -0.9837 -0.0801 -0.1610
vn -0.9946 -0.0774 -0.0692
vn 0.2824 -0.2015 -0.9378
vn 0.2978 -0.2199 -0.9289
vn -0.1859 -0.1968 -0.9626
vn -0.1677 -0.1801 -0.9692
vn 0.1661 -0.2189 0.9615
vn 0.1497 -0.2006 0.9682
vn -0.3005 -0.1791 0.9368
vn -0.3176 -0.1959 0.9278
vn 0.1443 -0.4172 0.8973
vn 0.2897 -0.9569 0.0207
vn 0.7689 -0.6371 0.0539
vn 0.7197 -0.3197 0.6163
vn 0.7982 -0.3202 -0.5102
vn 0.1617 -0.3992 0.9025
vn 0.8175 -0.3055 0.4881
vn 0.6780 -0.5831 0.4475
vn 0.2821 -0.7714 0.5703
vn 0.8284 -0.5312 0.1775
vn 0.7362 -0.6606 0.1470
vn 0.7489 -0.2228 0.6241
vn 0.2583 -0.3062 0.9162
vn 0.7628 0.4123 0.4981
vn 0.8487 0.2859 0.4449
vn 0.6968 0.1750 0.6956
vn 0.3080 0.2718 0.9117
vn 0.8231 -0.0790 0.5623
vn 0.7242 -0.1389 0.6755
vn 0.7958 0.4469 0.4086
vn 0.3320 0.7456 0.5778
vn 0.8191 0.5236 -0.2340
vn 0.8955 0.4256 -0.1303
vn 0.7639 0.6431 0.0529
vn 0.4003 0.9160 0.0274
vn 0.8688 0.4258 0.2528
vn 0.7788 0.5239 0.3449
vn 0.8448 0.4465 -0.2947
vn 0.4089 0.7450 -0.5269
vn 0.8108 -0.1395 -0.5683
vn 0.8932 -0.0795 -0.4426
vn 0.7866 0.1743 -0.5924
vn 0.4315 0.2709 -0.8605
vn 0.9022 0.2855 -0.3232
vn 0.8245 0.4119 -0.3879
vn 0.8282 -0.2234 -0.5140
vn 0.3829 -0.3071 -0.8712
vn 0.7494 -0.6607 -0.0428
vn 0.8450 -0.5313 -0.0603
vn 0.7335 -0.5835 -0.3485
vn 0.3584 -0.7720 -0.5249
vn 0.8773 -0.3059 -0.3697
vn -0.3059 -0.3957 0.8659
vn -0.8250 -0.2461 0.5086
vn -0.8257 -0.5611 -0.0573
vn -0.3790 -0.9250 -0.0259
vn -0.7465 -0.2467 -0.6179
vn -0.3220 -0.3761 0.8688
vn -0.4300 -0.7375 0.5207
vn -0.7855 -0.5134 0.3454
vn -0.9024 -0.2236 0.3683
vn -0.8915 -0.4493 0.0576
vn -0.4104 -0.2744 0.8696
vn -0.8457 -0.1469 0.5130
vn -0.8086 -0.5871 0.0393
vn -0.7819 0.4859 0.3904
vn -0.4041 0.3057 0.8621
vn -0.7667 0.2447 0.5936
vn -0.8712 0.3678 0.3250
vn -0.8968 0.0029 0.4424
vn -0.3367 0.7774 0.5312
vn -0.7988 0.5228 0.2975
vn -0.8206 -0.0653 0.5678
vn -0.7256 0.5972 -0.3417
vn -0.3118 0.9499 -0.0222
vn -0.6996 0.7129 -0.0491
vn -0.8245 0.5075 -0.2502
vn -0.8512 0.5077 0.1330
vn -0.2598 0.7769 -0.5735
vn -0.7498 0.5225 -0.4059
vn -0.7660 0.5975 0.2372
vn -0.7339 -0.0659 -0.6760
vn -0.2806 0.3048 -0.9101
vn -0.6769 0.2440 -0.6944
vn -0.8268 0.0024 -0.5625
vn -0.8177 0.3674 -0.4430
vn -0.2859 -0.2753 -0.9178
vn -0.7664 -0.1474 -0.6251
vn -0.7202 0.4854 -0.4956
vn -0.7953 -0.5871 -0.1505
vn -0.3537 -0.7381 -0.5746
vn -0.7300 -0.5138 -0.4505
vn -0.8749 -0.4494 -0.1802
vn -0.8426 -0.2240 -0.4896
usemtl Material.001
s 1
f 66/1/1 2/2/2 73/3/3 135/4/4
f 10/5/5 15/6/6 85/7/7 79/8/8
f 52/9/9 57/10/10 127/11/11 121/12/12
f 31/13/13 36/14/14 106/15/15 100/16/16
f 9/17/17 3/18/18 65/19/19 58/20/20 51/21/21 44/22/22 37/23/23 30/24/24 23/25/25 16/26/26
f 59/27/27 64/28/28 134/29/29 128/30/30
f 38/31/31 43/32/32 113/33/33 107/34/34
f 17/35/35 22/36/36 92/37/37 86/38/38
f 80/39/39 87/40/40 94/41/41 101/42/42 108/43/43 115/44/44 122/45/45 129/46/46 136/47/47 72/48/48
f 45/49/49 50/50/50 120/51/51 114/52/52
f 24/53/53 29/54/54 99/55/55 93/56/56
f 1/57/57 4/58/58 5/59/59 7/60/60
f 2/2/2 6/61/61 5/59/59 4/58/58
f 3/18/18 7/60/60 5/59/59 6/61/61
f 8/62/62 11/63/63 12/64/64 14/65/65
f 9/17/17 13/66/66 12/64/64 11/63/63
f 10/5/5 14/65/65 12/64/64 13/66/66
f 15/6/6 18/67/67 19/68/68 21/69/69
f 16/26/26 20/70/70 19/68/68 18/67/67
f 17/35/35 21/69/69 19/68/68 20/70/70
f 22/36/36 25/71/71 26/72/72 28/73/73
f 23/25/25 27/74/74 26/72/72 25/71/71
f 24/53/53 28/73/73 26/72/72 27/74/74
f 29/54/54 32/75/75 33/76/76 35/77/77
f 30/24/24 34/78/78 33/76/76 32/75/75
f 31/13/13 35/77/77 33/76/76 34/78/78
f 36/14/14 39/79/79 40/80/80 42/81/81
f 37/23/23 41/82/82 40/80/80 39/79/79
f 38/31/31 42/81/81 40/80/80 41/82/82
f 43/32/32 46/83/83 47/84/84 49/85/85
f 44/22/22 48/86/86 47/84/84 46/83/83
f 45/49/49 49/85/85 47/84/84 48/86/86
f 50/50/50 53/87/87 54/88/88 56/89/89
f 51/21/21 55/90/90 54/88/88 53/87/87
f 52/9/9 56/89/89 54/88/88 55/90/90
f 57/10/10 60/91/91 61/92/92 63/93/93
f 58/20/20 62/94/94 61/92/92 60/91/91
f 59/27/27 63/93/93 61/92/92 62/94/94
f 64/28/28 67/95/95 68/96/96 70/97/97
f 65/19/19 69/98/98 68/96/96 67/95/95
f 66/1/1 70/97/97 68/96/96 69/98/98
f 71/99/99 74/100/100 75/101/101 77/102/102
f 72/48/48 76/103/103 75/101/101 74/100/100
f 73/3/3 77/102/102 75/101/101 76/103/103
f 78/104/104 81/105/105 82/106/106 84/107/107
f 79/8/8 83/108/108 82/106/106 81/105/105
f 80/39/39 84/107/107 82/106/106 83/108/108
f 85/7/7 88/109/109 89/110/110 91/111/111
f 86/38/38 90/112/112 89/110/110 88/109/109
f 87/40/40 91/111/111 89/110/110 90/112/112
f 92/37/37 95/113/113 96/114/114 98/115/115
f 93/56/56 97/116/116 96/114/114 95/113/113
f 94/41/41 98/115/115 96/114/114 97/116/116
f 99/55/55 102/117/117 103/118/118 105/119/119
f 100/16/16 104/120/120 103/118/118 102/117/117
f 101/42/42 105/119/119 103/118/118 104/120/120
f 106/15/15 109/121/121 110/122/122 112/123/123
f 107/34/34 111/124/124 110/122/122 109/121/121
f 108/43/43 112/123/123 110/122/122 111/124/124
f 113/33/33 116/125/125 117/126/126 119/127/127
f 114/52/52 118/128/128 117/126/126 116/125/125
f 115/44/44 119/127/127 117/126/126 118/128/128
f 120/51/51 123/129/129 124/130/130 126/131/131
f 121/12/12 125/132/132 124/130/130 123/129/129
f 122/45/45 126/131/131 124/130/130 125/132/132
f 127/11/11 130/133/133 131/134/134 133/135/135
f 128/30/30 132/136/136 131/134/134 130/133/133
f 129/46/46 133/135/135 131/134/134 132/136/136
f 134/29/29 137/137/137 138/138/138 140/139/139
f 135/4/4 139/140/140 138/138/138 137/137/137
f 136/47/47 140/139/139 138/138/138 139/140/140
f 8/62/62 1/57/57 7/60/60 11/63/63
f 11/63/63 7/60/60 3/18/18 9/17/17
f 15/6/6 10/5/5 13/66/66 18/67/67
f 18/67/67 13/66/66 9/17/17 16/26/26
f 22/36/36 17/35/35 20/70/70 25/71/71
f 25/71/71 20/70/70 16/26/26 23/25/25
f 29/54/54 24/53/53 27/74/74 32/75/75
f 32/75/75 27/74/74 23/25/25 30/24/24
f 36/14/14 31/13/13 34/78/78 39/79/79
f 39/79/79 34/78/78 30/24/24 37/23/23
f 43/32/32 38/31/31 41/82/82 46/83/83
f 46/83/83 41/82/82 37/23/23 44/22/22
f 50/50/50 45/49/49 48/86/86 53/87/87
f 53/87/87 48/86/86 44/22/22 51/21/21
f 57/10/10 52/9/9 55/90/90 60/91/91
f 60/91/91 55/90/90 51/21/21 58/20/20
f 64/28/28 59/27/27 62/94/94 67/95/95
f 67/95/95 62/94/94 58/20/20 65/19/19
f 2/2/2 66/1/1 69/98/98 6/61/61
f 6/61/61 69/98/98 65/19/19 3/18/18
f 80/39/39 72/48/48 74/100/100 84/107/107
f 84/107/107 74/100/100 71/99/99 78/104/104
f 87/40/40 80/39/39 83/108/108 91/111/111
f 91/111/111 83/108/108 79/8/8 85/7/7
f 94/41/41 87/40/40 90/112/112 98/115/115
f 98/115/115 90/112/112 86/38/38 92/37/37
f 101/42/42 94/41/41 97/116/116 105/119/119
f 105/119/119 97/116/116 93/56/56 99/55/55
f 108/43/43 101/42/42 104/120/120 112/123/123
f 112/123/123 104/120/120 100/16/16 106/15/15
f 115/44/44 108/43/43 111/124/124 119/127/127
f 119/127/127 111/124/124 107/34/34 113/33/33
f 122/45/45 115/44/44 118/128/128 126/131/131
f 126/131/131 118/128/128 114/52/52 120/51/51
f 129/46/46 122/45/45 125/132/132 133/135/135
f 133/135/135 125/132/132 121/12/12 127/11/11
f 136/47/47 129/46/46 132/136/136 140/139/139
f 140/139/139 132/136/136 128/30/30 134/29/29
f 72/48/48 136/47/47 139/140/140 76/103/103
f 76/103/103 139/140/140 135/4/4 73/3/3
f 1/57/57 71/99/99 77/102/102 4/58/58
f 4/58/58 77/102/102 73/3/3 2/2/2
f 134/29/29 64/28/28 70/97/97 137/137/137
f 137/137/137 70/97/97 66/1/1 135/4/4
f 52/9/9 121/12/12 123/129/129 56/89/89
f 56/89/89 123/129/129 120/51/51 50/50/50
f 113/33/33 43/32/32 49/85/85 116/125/125
f 116/125/125 49/85/85 45/49/49 114/52/52
f 31/13/13 100/16/16 102/117/117 35/77/77
f 35/77/77 102/117/117 99/55/55 29/54/54
f 92/37/37 22/36/36 28/73/73 95/113/113
f 95/113/113 28/73/73 24/53/53 93/56/56
f 10/5/5 79/8/8 81/105/105 14/65/65
f 14/65/65 81/105/105 78/104/104 8/62/62
f 59/27/27 128/30/30 130/133/133 63/93/93
f 63/93/93 130/133/133 127/11/11 57/10/10
f 38/31/31 107/34/34 109/121/121 42/81/81
f 42/81/81 109/121/121 106/15/15 36/14/14
f 17/35/35 86/38/38 88/109/109 21/69/69
f 21/69/69 88/109/109 85/7/7 15/6/6
f 1/57/57 8/62/62 78/104/104 71/99/99
